<svg width="40" height="40" viewBox="0 0 40 40" fill="none" xmlns="http://www.w3.org/2000/svg">
<path d="M33.6667 20V31C33.6667 32.8856 33.6667 33.8284 33.0809 34.4142C32.4951 35 31.5523 35 29.6667 35H11.1667C10.0811 35 9.53826 35 9.09788 34.8612C8.16439 34.5668 7.43318 33.8356 7.13885 32.9021C7 32.4617 7 31.9189 7 30.8333V30.8333C7 29.7477 7 29.2049 7.13885 28.7645C7.43318 27.8311 8.16439 27.0998 9.09788 26.8055C9.53826 26.6667 10.0811 26.6667 11.1667 26.6667H29.6667C31.5523 26.6667 32.4951 26.6667 33.0809 26.0809C33.6667 25.4951 33.6667 24.5523 33.6667 22.6667V9C33.6667 7.11438 33.6667 6.17157 33.0809 5.58579C32.4951 5 31.5523 5 29.6667 5H11C9.11438 5 8.17157 5 7.58579 5.58579C7 6.17157 7 7.11438 7 9V30.8333" stroke="black" stroke-width="2"/>
<path d="M15.3333 13.3334L25.3333 13.3334" stroke="black" stroke-width="2" stroke-linecap="round"/>
</svg>
