<svg width="40" height="40" viewBox="0 0 40 40" fill="none" xmlns="http://www.w3.org/2000/svg">
<path d="M33.8889 27.3334H6.11111C4.94518 27.3334 4 28.2786 4 29.4445C4 31.2241 5.44264 32.6667 7.22222 32.6667H32.7778C34.5574 32.6667 36 31.2241 36 29.4445C36 28.2786 35.0548 27.3334 33.8889 27.3334Z" stroke="black" stroke-width="2"/>
<path d="M11.6667 7.66663H28.3333C29.933 7.66663 31.0321 7.66875 31.8577 7.77975C32.6545 7.88688 33.0452 8.07866 33.3166 8.35004C33.588 8.62143 33.7797 9.01214 33.8869 9.80897C33.9979 10.6346 34 11.7337 34 13.3333V27.3333H6V13.3333C6 11.7337 6.00212 10.6346 6.11312 9.80897C6.22025 9.01214 6.41203 8.62143 6.68342 8.35004C6.9548 8.07866 7.34552 7.88688 8.14234 7.77975C8.96793 7.66875 10.067 7.66663 11.6667 7.66663Z" stroke="black" stroke-width="2"/>
</svg>
